<svg xmlns:dc="http://purl.org/dc/elements/1.1/" xmlns:cc="http://creativecommons.org/ns#" xmlns:rdf="http://www.w3.org/1999/02/22-rdf-syntax-ns#" xmlns:svg="http://www.w3.org/2000/svg" xmlns="http://www.w3.org/2000/svg" xmlns:xlink="http://www.w3.org/1999/xlink" id="svg31861" viewBox="0 0 1024 768" height="768px" width="1024px" version="1.1">
  <metadata id="metadata31867">
    <rdf:rdf>
      <cc:work rdf:about="">
        <dc:format>image/svg+xml</dc:format>
        <dc:type rdf:resource="http://purl.org/dc/dcmitype/StillImage"></dc:type>
      </cc:work>
    </rdf:rdf>
  </metadata>
  <defs id="defs31865"></defs>
  <linearGradient spreadMethod="pad" y2="30%" x2="-10%" y1="120%" x1="30%" id="3d_gradient2-logo-068de362-d647-489a-83ea-21d28120f059">
    <stop id="stop31842" stop-opacity="1" stop-color="#ffffff" offset="0%"></stop>
    <stop id="stop31844" stop-opacity="1" stop-color="#000000" offset="100%"></stop>
  </linearGradient>
  <linearGradient gradientTransform="rotate(-30)" spreadMethod="pad" y2="30%" x2="-10%" y1="120%" x1="30%" id="3d_gradient3-logo-068de362-d647-489a-83ea-21d28120f059">
    <stop id="stop31847" stop-opacity="1" stop-color="#ffffff" offset="0%"></stop>
    <stop id="stop31849" stop-opacity="1" stop-color="#cccccc" offset="50%"></stop>
    <stop id="stop31851" stop-opacity="1" stop-color="#000000" offset="100%"></stop>
  </linearGradient>
  <g id="logo-group">
    <image xlink:href="" id="container" x="272" y="144" width="480" height="480" transform="translate(0 0)" style="display: none;"></image>
    <g id="logo-center" transform="translate(0 0)">
      <image xlink:href="" id="icon_container" x="0" y="0" style="display: none;"></image>
      <g id="slogan" style="font-style:oblique;font-weight:normal;font-size:32px;line-height:1;font-family:'Fanwood Text';font-variant-ligatures:none;text-align:center;text-anchor:middle" transform="translate(0 0)"></g>
      <g id="title" style="font-style:normal;font-weight:normal;font-size:72px;line-height:1;font-family:'Brandmark Script';font-variant-ligatures:normal;text-align:center;text-anchor:middle" transform="translate(0 0)">
        <path id="path31870" style="font-style:normal;font-weight:normal;font-size:72px;line-height:1;font-family:'Brandmark Script';font-variant-ligatures:normal;text-align:center;text-anchor:middle" d="m 488.48412,-56.88 c 0.864,-0.432 1.87201,-1.872 2.88,-2.16 -0.072,-0.144 0.36001,-0.576 0.216,-0.648 2.52,-1.512 4.96801,-3.672 7.344,-4.392 -0.288,0 -0.144,-0.216 -0.072,-0.288 l 0.43201,-0.216 c 0.144,0 -0.072,0.216 0.072,0.216 0,-0.504 2.88,-1.944 6.048,-2.952 3.23999,-1.008 6.624,-1.728 7.34399,-2.088 -0.216,0 -0.50399,0.072 -0.43199,-0.072 4.39199,-1.08 9.28799,-1.512 13.53599,-1.656 -1.152,-0.072 -0.288,-0.576 -0.936,-0.72 -0.79199,0.216 0.936,0.216 -0.072,0.36 -0.288,-0.144 -0.504,-0.144 -0.64799,-0.144 -0.432,0 -0.504,0.288 -1.008,0.288 -0.14401,0 -0.36001,-0.072 -0.64801,-0.144 l 0.72001,-0.288 c -0.86401,0.144 -1.80001,0.288 -2.736,0.36 -1.00801,0.072 -2.08801,0.288 -3.096,0.432 l 0.144,-0.432 c -0.43201,0.144 -0.93601,0.288 -1.29601,0.288 -0.288,0 -0.504,-0.072 -0.576,-0.216 2.01601,-0.216 2.44801,-0.936 3.528,-0.936 0.144,0 0.288,0 0.504,0.072 -0.144,0.144 -0.072,0.072 0.072,0.144 0.50401,-0.216 1.29601,-0.648 2.232,-0.648 0.216,0 0.36,0 0.576,0.072 l -0.432,0.216 c 1.22401,0 2.448,-0.072 3.672,-0.072 0.57601,0 1.22401,0 1.8,0.072 -0.35999,-0.144 -0.14399,-0.288 0.288,-0.288 0.144,0 0.36,0 0.576,0.072 1.22401,0.36 -0.36,0.072 0.072,0.36 0.64801,0.432 2.88,0.72 3.60001,1.296 -0.14401,-0.144 1.15199,1.008 0.864,1.008 -0.072,0 -0.144,-0.072 -0.432,-0.216 1.36799,1.224 2.664,2.088 2.808,3.528 0.216,0.072 0.576,0.432 0.864,0.936 l -0.36,0.072 0.432,0.576 c 0.28799,1.224 -0.288,1.872 -0.072,3.024 -0.072,-0.288 0,-0.576 0.14399,-0.576 0.144,0 0.216,0.648 0.288,1.224 0.072,0.576 0.144,1.08 0.36,0.864 -0.072,-0.36 -0.072,-0.72 -0.144,-1.08 0.288,0.36 0.216,-1.08 0.432,-0.792 -0.072,-1.008 -0.288,-2.016 -0.648,-3.024 l 0.288,-0.144 0.072,0.792 c 0.072,0.072 0.144,0.144 0.216,0.144 0.288,0 -0.648,-1.8 -0.72,-2.592 l -0.21599,0.072 c -0.576,-1.296 -0.72,-1.584 -0.864,-1.8 -0.144,-0.216 -0.072,-0.432 -0.86401,-1.368 -0.216,-0.144 -0.432,-0.216 -0.648,-0.288 -0.216,-0.072 1.65601,1.296 1.36801,1.512 -1.08001,-1.08 -2.664,-2.376 -4.17601,-2.736 h 1.15201 c -0.50401,-0.072 -1.08001,-1.008 -2.592,-1.44 l 1.22399,0.648 c -0.64799,0 -1.51199,-0.288 -2.448,-0.504 -0.648,-0.144 -1.43999,-0.288 -2.08799,-0.288 -0.28801,0 -0.57601,0 -0.79201,0.072 0.504,0.072 0.93601,0.072 1.00801,0.216 -0.216,0.072 -0.57601,0.072 -0.93601,0.072 -0.36,0 -0.792,-0.072 -1.08,-0.072 0.144,-0.36 1.008,-0.432 1.94401,-0.432 0.216,0 0.432,0 0.648,0 h 0.57599 c 0.288,0 0.504,-0.072 0.36,-0.144 -0.36,-0.072 -0.79199,-0.144 -1.15199,-0.144 -0.576,0 -1.08001,0.072 -1.51201,0.216 -0.576,0.216 -1.22399,0.216 -1.87199,0.216 l 0.86399,-0.36 -0.86399,0.144 h 0.216 c -0.072,0.072 -0.288,0.144 -0.504,0.144 h -1.22401 l 0.432,-0.36 c -0.432,0 -0.792,0 -1.22399,0.072 l 0.14399,0.072 c -1.944,0.288 -3.67199,0.432 -5.544,0.504 h 1.08 c -0.072,0.072 -0.648,0.144 -1.152,0.144 0.072,0.072 0.36,0.072 0.576,0.072 h 0.648 c 0.14401,0 0.21601,0 0.21601,0.072 -0.50401,0.072 -0.93601,0.072 -1.29601,0.072 h -1.15199 c -0.36,0 -0.79201,0 -1.29601,0.072 -0.144,0.144 1.22401,0.288 -0.144,0.72 0.072,-0.288 -1.22399,-0.216 -0.36,-0.648 -0.504,0.216 -0.71999,0.216 -0.93599,0.216 -0.21601,0 -0.36001,-0.072 -0.864,0.288 0.144,-0.072 0.288,-0.072 0.432,-0.144 0.36,0.144 -0.432,0.36 -0.72001,0.432 -0.36,0 -0.648,-0.072 -1.00799,-0.072 -0.216,0 -0.50401,0.072 -0.86401,0.144 -0.64799,0.216 -1.224,0.432 -1.8,0.72 -0.072,0 0,-0.144 0,-0.144 -1.72799,0.72 -3.672,1.224 -4.89599,1.872 -0.072,0.144 -0.28801,0.36 -0.072,0.36 0.072,0 0.216,0 0.50399,-0.144 -0.57599,0.504 -1.656,0.72 -2.448,0.936 l 0.50401,-0.576 c -2.16001,1.008 -4.82401,2.016 -6.48001,3.384 h 0.50401 c -1.656,1.224 -3.45601,2.088 -4.24801,2.88 0.216,-0.072 0.36,-0.144 0.432,-0.144 0.36,0 -1.08,1.008 -1.296,1.296 1.152,-0.648 2.592,-2.088 2.88,-2.232 h -0.072 c 0.72001,-0.576 1.44,-1.152 2.16001,-1.656 l 0.144,0.288 c -0.28801,-0.72 3.31199,-1.512 2.51999,-1.872 0.28801,-0.144 0.50401,-0.216 0.72,-0.216 0.216,0 0.36,0.072 0.36,0.216 l 1.728,-1.152 c 0.288,0.072 0.072,0.504 -0.216,0.648 -0.71999,0.36 -1.728,1.224 -2.664,1.296 -0.432,0.504 0.72001,0 -0.504,0.792 -2.376,0.864 -4.608,2.952 -6.26399,3.744 0.21599,-0.072 0.43199,-0.216 0.50399,-0.216 0.072,0 0.072,0.072 -0.072,0.288 -0.36,0.144 -0.71999,0.288 -1.08,0.504 -0.792,0.648 -0.864,1.296 -1.584,1.584 -0.072,0.36 1.512,-0.936 2.08801,-1.224 -0.216,1.224 -1.87201,0.936 -2.23201,2.16 -0.072,0.504 1.224,-1.08 1.584,-1.08 0,0 0.072,0.072 0,0.288 l -1.07999,0.792 c 1.07999,-0.144 1.656,-1.584 2.23199,-1.368 -0.216,0.432 -1.44,1.224 -1.656,1.296 -0.144,0.144 0.216,0.072 0.36,0.072 0.144,0 0.216,0.072 0,0.288 -0.71999,0.288 -0.71999,0.864 -1.296,1.08 v -0.432 c -0.36,0.36 -1.512,1.224 -1.944,1.728 -0.288,-0.216 0.72,-1.584 1.22401,-1.944 -0.57601,0.216 -1.22401,1.008 -1.656,1.44 l 0.86399,-0.648 c -1.07999,1.152 -0.432,1.224 -1.728,2.448 -0.288,0.432 -0.432,0.576 -0.57599,0.576 -0.144,0 -0.072,-0.432 -0.36,-0.288 -0.43201,0.576 -0.50401,0.792 -0.50401,0.792 0.072,0 0.288,-0.288 0.50401,-0.144 -0.79201,1.008 -1.152,1.08 -2.16001,2.448 0.432,-0.864 0.504,-1.152 1.152,-1.8 h -0.35999 c -0.72001,1.152 -1.08001,2.16 -1.72801,3.528 h -0.288 c 0,0.216 -1.8,2.808 -2.952,5.616 -1.296,2.808 -1.584,5.616 -1.224,5.4 -0.144,0.072 0.21601,-1.944 0.936,-3.816 0.144,-0.216 0.216,-0.504 0.288,-0.72 0,0.072 0.072,0.144 0.072,0.144 -0.504,1.584 -1.07999,3.744 -1.07999,5.4 0.35999,0.144 0.144,0.864 0.50399,0.792 0.144,1.008 0.504,2.016 1.368,2.52 -0.648,-0.792 -0.72,-1.44 -0.72,-2.448 0.072,-1.224 0.43201,-2.736 0.936,-4.248 0.072,-0.216 0.072,-0.432 0,-0.432 -0.072,0 -0.144,0.072 -0.216,0.216 -0.072,0.504 -0.21599,0.864 -0.35999,0.864 -0.072,0 -0.144,-0.144 -0.144,-0.36 0.072,-0.36 0.072,-0.432 0.144,-0.432 0.072,0 0.144,0.144 0.216,-0.504 -0.072,0.216 -0.216,0.36 -0.288,0.504 0.35999,-1.008 0.35999,-1.584 0.35999,-2.304 2.088,-3.672 4.10401,-8.064 7.20001,-10.44 0.216,-0.36 0.35999,-0.792 0.57599,-1.224 0.072,0 0.144,0.072 0.216,0.072 0.144,0 0.36,-0.072 0.57601,-0.432 -0.14401,0.144 -0.43201,0.432 -0.43201,0.288 0.72001,-0.648 1.368,-1.368 2.08801,-2.016 z m 22.75201,-15.336 c 0,0 0,0 0,0 z m 21.24,0.36 c -0.072,0 -0.072,0 -0.144,0 z m -6.33601,0.072 h -0.36 c 1.51201,0.432 -0.36,0.144 0.72001,0.648 0.648,0 1.22399,0.072 1.79999,0.144 -1.15199,-0.288 -1.43999,-0.792 -2.16,-0.792 z m 1.656,0.072 c 0.432,0.072 0.792,0.288 1.152,0.36 -0.216,0.216 0.72001,0.648 0.57601,0.864 0.072,-0.072 0.144,-0.144 0.216,-0.144 0.50399,0 1.43999,0.72 2.01599,1.152 0.216,-0.072 0.36,-0.072 0.50401,-0.144 -0.50401,-0.792 -2.592,-1.8 -4.46401,-2.088 z m 0.504,0.72 c 0.144,0 0.288,0.072 0.432,0.072 -0.144,0 -0.288,-0.072 -0.432,-0.072 z m 3.816,1.008 c 0.36001,0.36 0.64801,0.648 0.93601,1.008 l 0.71999,0.504 0.72,0.72 c -0.648,-0.936 -1.43999,-1.656 -2.376,-2.232 z m 2.664,3.456 c -0.432,-0.936 -1.36799,-1.872 -2.23199,-2.592 0.144,0.576 0.79199,0.936 1.15199,1.584 -0.072,-0.144 -0.144,-0.288 -0.072,-0.288 0.072,0 0.144,0.072 0.216,0.144 0.36,1.008 1.008,1.44 1.08,2.52 -0.144,-0.36 -0.288,-0.576 -0.432,-0.864 -0.144,0.144 0.144,0.504 0.288,0.936 0.144,0.432 0.288,0.864 0,0.936 0.144,0.288 0.216,0.36 0.288,0.36 0.14401,0 0.21601,-0.432 0.28801,-0.432 0.072,0 0.144,0.144 0.288,0.648 -0.288,-1.656 -0.57601,-2.808 -1.22401,-4.032 0.072,0.36 0.144,0.504 0.36,1.08 z m -42.12,2.88 h 0.072 z m 42.55201,0.792 c 0,0 -0.072,0 -0.072,0.144 0,1.008 -0.216,2.52 0.21601,2.88 0.432,-1.08 0.072,-1.296 -0.072,-1.8 0.072,-0.216 0.072,-0.864 0.216,-1.008 -0.072,-0.072 -0.216,-0.216 -0.288,-0.216 z m 0.432,0.288 c -0.072,-0.072 -0.144,-0.072 -0.144,-0.072 0,0.072 0.072,0.144 0.144,0.072 z m 0.648,0.504 c 0,0.072 0,0.072 0,0.144 z m -46.44001,1.08 h 0.072 l 0.216,-0.216 z m 46.728,1.08 c 0,-0.432 -0.072,-0.936 -0.21599,-1.296 0.21599,1.224 -0.648,3.168 0.072,3.096 0.144,-0.576 0.144,-1.08 0.144,-1.224 0,0 0,0 0,0 z m -1.728,1.44 h 0.288 c 0,-0.144 -0.432,-0.576 -0.216,-1.584 -0.288,0.504 -0.072,0.72 -0.288,1.224 0.072,0.288 0.144,0.504 0.144,0.792 z m -47.30399,-0.792 c -0.144,0.072 -0.144,0.072 -0.216,0.072 -0.072,0 0.43199,-0.504 0.57599,-0.648 -1.08,0.648 -0.28799,0.504 -0.792,1.008 0.14401,-0.144 0.36001,-0.216 0.43201,-0.432 z m -1.728,1.224 0.64799,-1.008 c -0.36,0.288 -1.08,1.008 -0.64799,1.008 z m 50.184,-0.504 c -0.144,0.288 -0.144,1.296 -0.504,1.296 -0.144,0.36 -0.144,0.504 -0.072,0.504 0,0 0.216,-0.288 0.288,-0.288 l -0.072,0.432 c -0.072,0.288 0.504,-1.8 0.36,-1.944 z m -0.144,2.376 c 0.216,-0.504 0.432,-1.224 0.57599,-1.872 -0.35999,0.648 -0.35999,1.08 -0.57599,1.872 z m -50.40001,-1.656 -0.792,0.72 c -0.14399,-0.216 -0.21599,-0.288 0.288,-0.72 -0.144,0 -0.50399,0.576 -0.71999,0.792 l 0.216,-0.144 c -0.072,0.144 -0.216,0.432 -0.36001,0.576 0.72,-0.648 1.65601,-0.72 1.368,-1.224 z m 48.672,0.936 -0.36,1.08 0.648,-1.44 c -0.072,0.144 -0.144,0.216 -0.288,0.36 z m -50.04,0.288 -0.216,0.216 0.072,0.072 c 0.072,-0.072 0.072,-0.144 0.144,-0.288 z m 17.28,4.32 c 0,0.216 0.072,0.432 0.216,0.216 0,-0.288 0.072,-0.432 0.216,-0.432 0.072,0 0.144,0.072 0.216,0.216 0,0.144 0,0.216 -0.072,0.216 -0.072,0 -0.216,-0.144 -0.144,0.216 l 0.216,-0.216 c -0.144,0.576 -0.072,0.864 0.14401,1.224 -1.08001,1.944 -0.72001,4.464 -1.87201,6.12 l 0.216,0.72 c -0.072,0 -0.072,-0.072 -0.144,-0.072 -0.144,0 -0.216,0.144 -0.216,0.36 0.072,-0.072 0.072,-0.288 0.144,-0.216 l -0.36,1.368 0.216,-0.072 c -0.36,0.36 -0.144,1.224 -0.64799,1.656 0.14399,0 0.14399,0.36 0.28799,0.36 -0.72,1.224 -0.57599,2.88 -1.368,3.888 0.144,-0.072 0.216,0.072 0.288,0.144 0,0.144 -0.072,0.216 -0.072,0.216 -0.072,0 -0.144,-0.144 -0.216,-0.072 0.86401,0.432 -1.87199,5.976 -1.584,6.84 0.072,-0.144 0.072,-0.216 0.144,-0.144 -0.43199,2.088 -0.936,4.392 -1.224,6.48 0.072,-0.216 0.144,-0.216 0.288,-0.216 h 0.28801 c 0.072,0 0.072,0 0.144,-0.072 0,-0.072 -0.072,-0.144 -0.072,-0.144 -0.072,0 -0.144,0.144 -0.144,0.144 -0.072,0 -0.072,0 -0.072,-0.144 0.64799,-0.432 -0.36001,-0.504 0.288,-1.008 l 0.21599,0.36 c -0.072,-0.792 0.072,-1.872 0.36,-2.808 l 0.288,0.216 c -0.072,-0.432 0.072,-0.864 0.43201,-0.864 -0.36001,1.08 0.50399,1.44 -0.072,2.016 -0.072,-0.144 -0.072,-0.072 -0.14401,0 0.14401,0.288 0.36001,0.864 0.072,1.368 l -0.216,-0.288 c -0.144,0.864 -0.432,1.728 -0.504,2.52 0.072,-0.072 0.072,-0.072 0.144,-0.072 0.144,0 0.216,0.216 0.216,0.504 -0.072,0.144 -0.072,0.216 -0.144,0.216 -0.072,0 -0.072,-0.36 -0.216,-0.216 -0.50399,0.216 -0.072,1.224 -0.144,1.656 -0.072,-0.072 -0.28799,0.432 -0.43199,0.432 0,0 -0.072,0 -0.072,-0.216 -0.28801,0.792 0.144,1.512 -0.43201,1.944 0.144,0.072 0.36001,0.36 0.36001,0.576 l -0.36001,-0.072 0.216,0.36 c -0.144,0.504 -0.864,0.648 -0.648,1.296 0,-0.144 0,-0.36 0.144,-0.36 0.288,0.144 0.216,1.224 0.64801,1.08 l -0.14401,-0.504 c 0.21601,0.216 0.28801,-0.432 0.43201,-0.288 l 0.072,-1.224 h 0.28799 l -0.21599,0.288 c 0.072,0.072 0.14399,0.072 0.21599,0.072 0.216,0 -0.072,-0.792 0.288,-1.008 l -0.216,-0.072 c 0.36,-1.008 0.288,-0.36 0.648,-1.224 l -0.216,-0.288 c 0,0.072 0.072,0.792 -0.216,0.72 -0.072,-0.576 0.144,-1.368 0,-2.016 l 0.432,0.504 c -0.144,-0.288 0.43201,-0.504 0.50401,-1.08 l -0.288,0.504 c -0.43201,-0.576 0.288,-1.512 0.144,-2.232 -0.072,0.216 -0.144,0.36 -0.28801,0.36 -0.144,-0.216 0.072,-0.576 0.21601,-0.864 0.57599,0.216 0,1.728 0.43199,1.656 0.288,-0.792 -0.28799,-1.584 -0.072,-2.088 l 0.288,0.504 -0.072,-0.432 v 0.144 c -0.288,-0.216 0.144,-0.504 0.072,-0.792 l 0.36,0.288 0.072,-0.576 -0.072,0.072 c 0.072,-0.792 0.216,-1.512 0.50401,-2.16 l -0.072,0.144 c -0.072,-0.072 0,-0.36 0.072,-0.576 -0.21601,0 -0.28801,0.648 -0.43201,0.576 0.216,-0.792 0.50401,-0.864 0.792,-1.584 -0.072,-0.072 -0.21599,0.072 -0.35999,0.072 -0.144,0 -0.21601,-0.072 -0.21601,-0.36 0.21601,0.072 0.36001,-0.072 0.504,-0.072 0.072,0 0.144,0 0.216,0.144 -0.072,-0.576 0.36,-0.36 0.072,-0.864 0,0.072 0,0.144 -0.072,0.216 -0.216,0.144 -0.072,-0.288 -0.144,-0.432 0.288,-0.216 0.504,-0.288 0.648,-0.648 l 0.072,-0.936 h 0.072 c 0.072,-0.792 0.50401,-1.656 0.43201,-2.304 l -0.144,-0.144 c -0.072,0 -0.14401,0.072 -0.14401,0.216 -0.216,-0.432 0.21601,-0.792 0.432,-1.152 l 0.216,0.36 c 0.144,-1.008 0.93601,-2.16 0.86401,-3.168 l -0.28801,0.072 c 0.072,-0.936 0.57601,-1.656 0.57601,-2.232 -0.144,0.144 -0.216,0.144 -0.216,0.144 -0.21601,0 0.072,-0.72 0,-0.864 -0.28801,0.576 -0.21601,1.584 -0.36001,1.656 h 0.072 l -0.072,1.224 -0.36,-0.072 c 0.72001,0.216 -0.71999,1.512 0,1.44 -0.072,0.36 -0.288,0.36 -0.57599,0.36 v 0.936 c -0.144,0.072 -0.43201,-0.216 -0.43201,-0.288 0.144,-0.36 0,-1.08 0.43201,-1.296 -0.072,-0.144 -0.144,-0.144 -0.216,-0.144 -0.072,0 -0.21601,0.072 -0.14401,-0.36 0.72,-1.08 0.648,-2.52 1.224,-3.24 -0.072,0.072 -0.144,0.216 -0.216,0.216 -0.072,0 -0.072,-0.072 -0.144,-0.144 l 0.432,-0.432 c 0.072,-0.504 -0.288,-0.864 0,-1.08 -0.144,-0.216 -0.432,0.72 -0.648,0.936 -0.648,-0.576 0.648,-0.792 0.216,-1.44 -0.36,-0.216 -0.288,0.792 -0.50399,0.792 0,0 -0.072,0 -0.144,-0.072 l 0.216,-0.648 c -0.64801,0.288 -0.072,1.08 -0.64801,1.152 -0.144,-0.288 0.144,-0.936 0.288,-1.008 -0.072,-0.144 -0.288,0.072 -0.36,0.072 -0.072,0 -0.144,-0.072 -0.144,-0.144 0.36,-0.288 0,-0.576 0.288,-0.792 l 0.28801,0.216 c 0,-0.288 0.35999,-0.864 0.35999,-1.224 0.36,0.144 0.36,0.936 0.288,1.224 0.288,-0.216 0.288,-0.72 0.36,-1.008 l -0.288,0.432 c 0.216,-0.72 -0.43199,-0.648 -0.072,-1.44 0,-0.288 0.072,-0.36 0.144,-0.36 0.144,0 0.288,0.216 0.432,0.072 v -0.432 c 0,0 -0.072,0.144 -0.288,0.072 0.072,-0.576 0.288,-0.648 0.432,-1.44 0,0.432 0.21601,0.648 0,1.08 l 0.28801,-0.072 c 0,-0.648 -0.216,-1.224 -0.216,-2.016 h 0.216 c -0.144,-0.216 1.584,-5.832 1.07999,-5.688 0.072,0 -0.36,1.224 -0.648,2.232 l -0.072,-0.072 v 0.216 0.072 c -0.072,0.072 -0.072,-0.072 0,-0.288 0.072,-0.648 0.432,-2.304 0.576,-2.736 -0.432,-0.216 0,-0.504 -0.36,-0.576 0.072,-1.008 0.432,-1.656 0.79201,-2.232 -1.08,1.152 -1.87201,2.664 -2.37601,4.248 z m -17.28,-3.888 -0.144,-0.144 c -0.072,0.144 -0.072,0.216 0.144,0.144 z m -0.144,1.872 c 0.36001,-0.288 1.152,-0.72 1.008,-1.152 -0.288,0.216 -0.57599,0.792 -1.008,1.152 z m 50.688,-0.576 c -0.288,0.72 -0.504,1.152 -0.72,1.512 0.288,-0.216 0.36,0 0.864,-1.008 z m -31.32,1.008 v 0.144 c 0,0 0,0 0,0 z m 29.37601,0.072 c -0.072,0.504 -0.79201,1.08 -1.00801,1.656 v 0.288 c 0.36,-1.368 1.29601,-1.152 1.00801,-1.944 z m 1.22399,0.432 c -0.072,0.072 -0.216,0.288 -0.36,0.648 0.144,-0.216 0.288,-0.432 0.36,-0.648 z m -30.456,0.216 c 0,0 0,0 0,0 z m 30.096,0.648 c 0.072,0.432 -0.64799,1.224 -0.50399,1.512 0.144,0.072 0.50399,-0.504 0.64799,-0.576 -0.28799,-0.432 0.576,-1.152 0,-1.152 h -0.144 c -0.216,0.288 -0.35999,0.648 -0.57599,1.224 z m -4.24799,3.672 c 0.216,0 0.216,0.36 0.36,0.36 0.144,0 0.216,-0.144 0.504,-0.432 -0.072,-0.216 0.21599,-0.576 0,-0.576 0.35999,-0.36 0.43199,-0.216 0.64799,-0.432 0.288,-0.792 1.08,-1.728 1.224,-2.448 -0.144,0.288 -0.216,0.36 -0.36,0.504 -0.936,0.936 -1.44,2.592 -2.37599,3.024 z m 4.46399,-2.664 c 0,-0.072 0,-0.144 -0.072,-0.072 0,0 0,0.072 0.072,0.072 z m -1.51199,1.296 c 0.072,-0.072 0.144,-0.144 0.216,-0.288 z m -0.57601,0.144 c 0,-0.072 0,-0.072 0,-0.144 z m 0.432,0.216 0.14401,-0.36 c -0.072,0.144 -0.14401,0.288 -0.14401,0.36 z m -1.44,1.728 c -0.144,0 -0.144,-0.072 0,-0.36 l 0.576,-0.216 0.432,-1.368 c -0.36,1.08 -1.58399,1.584 -1.224,2.16 l -0.50399,0.288 0.43199,-0.072 0.792,-0.792 c -0.216,0.216 -0.432,0.36 -0.504,0.36 z m 0.792,-0.648 0.432,-0.144 c 0.79201,-1.008 0,-0.504 0.216,-0.936 z m -29.08799,-0.72 c 0,-0.072 0,-0.072 0.072,-0.144 -0.072,0.216 -0.072,0.288 -0.072,0.288 z m -21.74401,0.072 h 0.144 c 0,-0.072 0,-0.072 -0.144,0 z m 48.96001,2.664 c 0.288,-0.288 0.504,-0.576 0.79199,-0.936 -0.28799,0.288 -0.50399,0.648 -0.79199,0.936 z m -2.664,1.944 c -0.144,0.144 -0.216,0.144 -0.288,0.144 0.216,-0.864 1.87199,-1.296 1.51199,-1.584 -0.72,0.432 -1.79999,1.728 -2.16,1.8 -0.072,0.144 0.144,0.072 0.21601,0.072 0.072,0 0.072,0 -0.072,0.288 -0.72,0.648 -0.72,0.432 -1.224,0.72 l -0.216,0.576 c -0.28799,-0.144 -0.93599,0.576 -1.656,1.368 1.00801,-0.792 2.016,-1.584 3.096,-2.592 -0.936,1.656 -2.59199,2.52 -3.888,3.816 -0.144,0.216 -0.144,0.288 -0.072,0.288 0.072,0 0.864,-0.792 1.00801,-0.72 0.144,0.576 -0.86401,0.432 -0.86401,1.08 0.216,0.288 1.72801,-1.08 2.448,-1.584 0.432,-0.576 0.36,-0.648 0.36,-0.936 0.288,0 0.792,-0.504 1.08001,-0.432 0.648,-1.152 1.43999,-1.512 2.23199,-2.448 0.144,-0.144 0.36,-0.36 0.288,-0.504 l 0.072,-0.072 -0.072,0.072 c 0.216,-0.432 0.50401,-0.864 0.86401,-1.296 -0.93601,0.936 -2.01601,1.44 -2.664,1.944 z m -47.80801,-0.792 -0.144,0.216 c 0.072,-0.144 0.144,-0.216 0.144,-0.36 z m 22.968,1.008 c 0.072,0 0.072,-0.072 0.072,-0.072 0,0 0,0.072 -0.072,0.072 z m -0.072,0.648 c 0.14401,-0.144 0,-0.432 0.072,-0.648 -0.072,0.216 -0.36,0.504 -0.072,0.648 z m 1.152,0.288 0.144,0.072 c -0.072,-0.072 -0.072,-0.144 -0.144,-0.072 z m 0.144,0.072 v 0.144 c 0,-0.072 0.072,-0.072 0.072,-0.144 z m 0.144,0.36 -0.072,0.072 c 0,-0.072 0,-0.216 -0.072,-0.288 -0.144,0.36 -0.79199,0.576 -0.288,0.792 l 0.144,-0.432 c 0.216,0.072 0.36,0.072 0.288,0.36 0.072,-0.072 0,-0.36 0,-0.504 z m -25.56,0.36 v -0.216 c 0.072,-0.144 0.072,-0.216 0.144,-0.288 0,0 0,0.216 -0.144,0.504 z m 24.984,0.36 0.144,0.576 c 0.072,-0.144 0.144,-0.648 -0.144,-0.576 z m -0.50399,0.576 c 0,0.072 -0.072,0.216 0,0.288 l 0.072,-0.072 c 0,-0.072 -0.072,-0.144 -0.072,-0.216 z m 0.072,0.216 c 0,0 0,0 0.072,0 z m 0.072,0.432 c 0.21599,-0.288 0.072,-0.36 0,-0.432 0,0.072 -0.072,0.36 0,0.432 z m 19.15199,1.224 v -0.072 c 0.432,-0.288 0.936,-0.864 1.368,-1.296 -0.792,0.576 -1.584,1.152 -2.30399,1.8 0.288,-0.072 0.576,-0.072 0.93599,-0.432 z m 25.99201,16.776 c -0.216,0.072 -0.432,0.072 -0.64801,0.144 0.072,-0.072 0,-0.288 -0.36,-0.288 -0.144,0 -0.216,0.072 -0.36,0.072 -1.29599,0 0.432,0.288 -0.288,0.504 -0.216,-0.072 -0.50399,-0.144 -0.79199,-0.144 -1.29601,0 -3.096,0.864 -4.46401,0.864 -0.288,0 -0.576,-0.072 -0.792,-0.144 -1.29599,0.288 -2.592,0.72 -3.95999,1.152 -0.576,0.144 -1.15201,0.36 -1.65601,0.576 l -0.792,-1.296 c -0.28799,-0.576 -0.79199,-1.08 -1.07999,-1.368 0.144,-0.144 0.576,0.144 1.07999,0.576 0.504,0.432 0.864,1.08 1.08,1.44 -0.072,-0.36 -0.288,-0.864 -0.576,-1.368 -0.36,-0.36 -0.72,-0.792 -1.00799,-1.008 l 0.79199,1.08 c -1.36799,-1.44 -1.36799,-0.864 -3.024,-2.232 -0.71999,-0.576 -0.86399,-0.648 -0.71999,-0.72 0.14399,-0.072 0.35999,-0.144 0.14399,-0.36 l -1.07999,-0.504 c -0.072,0 0.36,0.288 0.288,0.504 -1.44001,-0.792 -1.72801,-1.08 -3.74401,-1.8 1.15201,0.36 1.58401,0.288 2.664,0.864 l -0.216,-0.432 c -0.79199,-0.288 -1.58399,-0.432 -2.304,-0.576 -0.792,-0.144 -1.65599,-0.144 -2.59199,-0.288 l -0.14401,-0.288 -2.66399,-0.36 c -0.72001,-0.072 -1.58401,-0.144 -2.52,-0.216 h -2.88 c -3.888,0.216 -7.34401,1.152 -6.91201,1.296 0,-0.072 2.52,-0.576 4.968,-0.792 0.36,0 0.648,-0.072 1.008,-0.072 l -0.072,0.072 0.28801,-0.072 h 0.36 c -0.072,0 -0.288,0.072 -0.64801,0.072 l -0.072,0.072 c -1.72799,0.144 -3.528,0.432 -5.256,0.864 -0.576,0.144 -1.008,0.288 -1.368,0.36 -0.216,0 -0.35999,0.072 -0.43199,0.144 3.95999,-3.024 8.56799,-6.84 12.02399,-9.72 l -0.216,0.072 c 0.216,-0.36 1.224,-1.08 1.368,-1.008 l -0.072,-0.432 c 0.21601,-0.216 0.36001,-0.36 0.43201,-0.36 0.288,0 0.144,0.864 0.504,0.864 0.072,0 0.28799,-0.144 0.57599,-0.432 -0.144,0.072 -0.288,0.144 -0.43199,0.144 -0.36,0 -0.072,-0.648 0.35999,-1.008 -0.072,0 -0.35999,-0.216 -0.57599,-0.216 -0.072,0 -0.144,0 -0.216,0.072 l -1.00801,0.432 c 0.36,0.432 -1.08,1.44 -1.58399,1.728 v -0.072 c 0.144,-0.144 0.072,-0.144 0,-0.072 0.072,-0.432 0.35999,-0.864 1.00799,-1.152 0.504,-0.576 1.008,-1.008 1.58401,-1.512 -0.432,0.072 -0.86401,0 -1.51201,0.648 l 0.216,-0.144 c 0.144,0 -0.216,0.432 -0.072,0.432 0.072,0 0.144,0 0.216,-0.072 -0.504,0.648 -1.72799,0.864 -2.664,1.944 0.144,-0.144 0.216,-0.144 0.216,-0.144 0.14401,0 0.072,0.216 0,0.36 -0.792,0.504 -1.87199,1.584 -2.66399,2.16 0.072,0 0.144,0.072 0.144,0.144 -0.72001,0.36 -0.93601,0.576 -1.80001,0.936 -3.02399,1.8 -6.624,5.04 -9.432,6.192 -0.144,0 -0.216,0.072 -0.216,0.072 -0.36,0 0.79201,-0.864 0.432,-0.792 -1.656,1.8 -2.304,2.88 -2.232,3.6 -0.216,0.072 -0.43199,0.216 -0.648,0.288 l 0.72,-0.216 c 0,0.288 0.144,0.432 0.36,0.648 l 0.36,-0.36 c 0.072,0.072 0.072,0.144 0.21601,0.144 0.144,0 0.216,-0.072 0.43199,-0.216 0.432,-0.288 0.288,-0.432 0.144,-0.432 -0.144,0 -0.35999,0.072 -0.21599,-0.144 0.28799,0 0.57599,-0.144 0.86399,-0.288 2.592,-0.72 5.472,-1.368 8.56801,-1.656 0.50399,-0.144 0.86399,-0.288 0.216,-0.288 -0.43201,0.072 -0.72,0.144 -0.936,0.144 -0.36001,0 -0.43201,-0.144 0.072,-0.36 0.216,-0.072 0.35999,-0.072 0.43199,-0.072 0.21601,0 0,0.072 0.14401,0.072 0.072,0 0.216,0 0.64799,-0.144 h -0.64799 c 1.29599,-0.144 2.01599,-0.36 2.808,-0.72 2.736,0.144 5.544,0.288 8.27999,0.72 2.664,0.432 5.184,1.584 6.84001,3.168 l 1.51199,0.648 c -0.072,0.216 -0.072,0.504 0.432,0.936 -0.144,-0.216 -0.432,-0.504 -0.36,-0.504 l 1.22401,1.296 0.79199,1.368 c -4.24799,1.512 -8.424,3.528 -11.808,5.256 l 0.288,-0.072 c -0.432,0.36 -1.79999,1.008 -1.944,0.936 l -0.072,0.432 c -0.36,0.216 -0.576,0.288 -0.648,0.288 -0.36,0 0.144,-0.864 -0.288,-0.864 -0.144,0 -0.36,0.072 -0.79199,0.36 0.216,-0.072 0.35999,-0.072 0.43199,-0.072 0.504,0 0,0.72 -0.71999,1.08 0.144,-0.072 0.36,0.216 0.64799,0.216 0.072,0 0.216,0 0.288,-0.072 l 1.29601,-0.36 c -0.21601,-0.504 1.72799,-1.368 2.44799,-1.584 v 0.072 c -0.216,0.144 -0.216,0.144 -0.072,0.072 -0.288,0.432 -0.72,0.864 -1.51199,1.08 -0.792,0.504 -1.65601,1.008 -2.44801,1.44 0.864,0 1.296,-0.072 2.01601,-0.504 -0.216,0.072 -0.288,0.144 -0.36,0.144 -0.144,0 0.432,-0.504 0.216,-0.504 0,0 -0.072,0 -0.216,0.072 0.792,-0.648 2.15999,-0.72 3.6,-1.656 h -0.144 c -0.144,0 -0.072,-0.216 0.144,-0.36 1.07999,-0.432 2.808,-1.296 3.88799,-1.8 -0.072,-0.072 -0.072,-0.144 -0.072,-0.144 1.008,-0.36 1.296,-0.432 2.44801,-0.648 1.29599,-0.432 2.664,-0.864 4.10399,-1.368 0.288,0.864 0.504,1.728 0.288,2.376 0.144,0 0.288,0.792 0.432,0.72 -0.432,3.456 -2.01599,7.344 -4.176,9.504 0.288,-0.144 0.144,0.144 0.144,0.288 -0.216,0.36 -0.36,0.504 -0.36,0.504 -0.072,0 0,-0.288 -0.144,-0.216 0.216,0.504 -2.232,3.744 -5.4,6.624 -3.168,2.88 -6.76799,5.544 -7.34399,6.336 0.216,-0.144 0.504,-0.288 0.432,-0.216 -4.39201,3.6 -9.72,6.912 -14.61601,9.288 0.36001,-0.144 0.576,-0.216 0.648,-0.216 0.36,0 0.216,0.36 0.504,0.36 0,0 0.072,0 0.216,-0.072 0.216,-0.144 0.216,-0.144 0.144,-0.144 l -0.504,0.072 c -0.072,0 0,-0.072 0.288,-0.216 1.728,-0.216 0.864,-0.864 2.664,-1.224 l -0.71999,0.648 c 1.94399,-1.224 4.17599,-2.664 6.26399,-4.032 v 0.432 c 0.648,-0.504 1.58401,-1.224 2.01601,-1.224 0.072,0 0.072,0.072 0.144,0.072 -2.52001,1.584 -2.44801,2.592 -4.24801,3.168 0.144,-0.216 0.072,-0.072 -0.144,-0.072 -0.504,0.576 -1.512,1.584 -2.88,2.088 l 0.36001,-0.504 c -2.01601,1.152 -4.24801,2.088 -6.19201,2.952 0.648,-0.072 0.072,0.36 -0.792,0.648 l -0.57599,0.144 c -0.14401,0 0.79199,-0.432 0.288,-0.36 h -0.144 c -1.00801,0 -3.24001,1.152 -4.248,1.224 0.28799,-0.072 -2.95201,0 -1.00801,-0.288 -0.36,0 -0.71999,0 -1.08,0 h -0.576 c -0.57599,0 -1.224,-0.072 -1.728,-0.36 -1.008,-0.576 -1.65599,-1.584 -1.512,-2.592 -0.21599,-0.288 -0.43199,-1.008 -0.35999,-1.728 l 0.28799,0.144 c 0,-0.288 -0.072,-0.576 -0.072,-0.864 0.50399,-1.656 1.44,-2.016 1.87199,-3.456 -0.144,0.288 -0.36,0.72 -0.50399,0.72 -0.28801,-0.288 1.15199,-2.952 0.50399,-2.592 l -0.43199,1.224 c -0.072,-0.504 -0.79201,1.008 -0.79201,0.648 -0.504,1.152 -0.93599,2.304 -1.152,3.6 h -0.36 l 0.432,-0.864 c -0.072,-0.216 -0.072,-0.288 -0.144,-0.288 -0.216,0 -0.576,2.16 -0.504,3.744 h 0.216 c 0.288,2.232 1.872,3.744 4.032,4.104 0.36,-0.072 0.792,-0.144 1.00801,-0.216 0.072,-0.072 -0.14401,0 -0.57601,0 -0.216,0 -0.504,0 -0.86399,-0.072 -0.93601,-0.216 -1.87201,-0.576 -1.72801,-0.72 0.648,0.288 1.368,0.504 2.01601,0.504 0.35999,0.072 0.64799,0.072 0.93599,0.072 l 0.792,-0.072 c 1.08001,-0.072 2.088,-0.36 2.88,-0.72 -0.28799,0.288 -0.648,0.504 -1.008,0.72 0.64801,-0.216 1.8,0.072 3.24,-0.36 -0.504,0.072 -1.00799,0.144 -1.512,0.144 1.152,-0.792 4.032,-1.224 5.688,-2.304 -0.36,0.144 -0.71999,0.36 -0.93599,0.36 -0.072,0 -0.14401,-0.072 -0.14401,-0.072 0.36001,-0.288 1.512,-0.72 2.232,-0.936 0,0.72 -4.104,2.088 -3.52799,2.304 2.15999,-0.72 3.52799,-2.16 4.824,-2.664 l -0.86401,0.792 0.936,-0.576 -0.28799,0.144 c 0.28799,-0.432 1.22399,-0.576 1.94399,-1.08 l -0.35999,0.576 c 0.50399,-0.216 1.00799,-0.504 1.44,-0.72 h -0.21601 c 1.87201,-1.224 3.6,-2.232 5.25601,-3.168 l -0.432,0.216 c 0.072,-0.144 0.648,-0.576 1.15199,-0.864 -0.21599,-0.072 -1.584,0.936 -1.584,0.648 1.8,-1.152 2.232,-1.08 4.10401,-2.232 0,-0.072 -0.216,-0.072 -0.432,-0.072 -0.288,0 -0.504,-0.072 0.288,-0.72 0,0.072 0.072,0.072 0.144,0.072 0.216,0 0.50399,-0.072 0.64799,-0.072 0.144,0 0.144,0.072 -0.144,0.432 1.08,-1.08 1.08,-0.504 1.80001,-1.512 l -0.50401,0.36 c -0.432,0.072 0.43201,-0.576 0.72001,-0.864 0.71999,-0.288 1.07999,-0.36 2.01599,-1.08 l 1.72801,-1.728 c 0.072,-0.072 0.072,0.072 0.072,0.072 1.584,-1.656 3.528,-3.312 4.536,-4.68 0.072,-0.144 0.14401,-0.432 0.072,-0.432 -0.072,0 -0.216,0.144 -0.576,0.504 0.504,-0.864 1.58401,-1.728 2.304,-2.448 l -0.288,0.936 c 1.87201,-2.304 4.32,-5.04 5.32801,-7.704 l -0.432,0.288 c 0,-0.072 0.072,-0.072 0.072,-0.144 l -0.288,-0.216 c 0.288,0.216 -0.28801,1.296 -1.00801,2.16 -0.72,0.864 -1.29599,1.512 -0.79199,1.44 -0.36,0.648 -0.72,0.864 -0.936,0.864 -0.072,0 -0.144,0 -0.144,-0.072 -0.50401,0.72 -0.93601,1.512 -1.44001,2.232 -0.36,0.144 -0.216,-0.576 0,-0.792 0.72,-0.72 1.44001,-2.304 2.30401,-2.952 0.072,-0.288 0.072,-0.36 0,-0.36 -0.216,0 -0.432,0.288 0.216,-0.864 2.088,-2.448 3.31199,-6.336 3.67199,-8.856 -0.072,0.36 -0.144,0.72 -0.216,0.72 -0.072,0 -0.072,-0.072 -0.144,-0.36 0.144,-0.504 0.288,-1.08 0.288,-1.656 -0.216,-1.368 -0.576,-1.944 -0.79199,-2.88 2.448,-0.72 4.968,-1.368 7.55999,-1.368 1.15201,0.144 -1.152,0.432 -0.648,0.576 3.96,-1.296 5.04001,-2.16 4.53601,-3.096 z m -25.92001,-15.912 c -0.072,0.216 -0.072,0.288 0,0.288 0.144,0 0.504,-0.288 0.864,-0.648 -0.504,0.432 -0.864,0.504 -0.864,0.36 z m -45.144,0.792 c 0,0 0,0 0,0 z m 43.488,0.792 v 0.072 z m -6.264,2.952 c 0.144,0 0.36001,-0.144 0.64801,-0.36 -0.144,-0.072 -0.36001,0 -0.64801,0.36 z m 9.216,6.192 0.072,0.144 c 0.072,-0.072 0.14401,-0.072 -0.072,-0.144 z m -14.904,0.864 c 0,0 0,0 0,0 z m -8.78399,0.792 0.144,-0.36 z m 6.62399,0.648 c -0.57599,0.288 -1.08,0.504 -1.584,0.648 0.79201,-0.648 1.584,-1.512 2.37601,-1.44 -0.072,0.072 -0.14401,0.072 -0.14401,0.072 l 0.28801,-0.072 c 0,0.432 -1.08001,0.432 -0.93601,0.792 z m 24.408,0.216 c -0.072,-0.072 -0.144,-0.072 -0.21599,-0.144 z m 2.23201,0 c -0.216,-0.144 -0.288,-0.144 -0.144,0.072 z m 0.072,-0.072 -0.072,0.072 c 0.072,0.072 0.216,0.072 0.36,0.144 -0.144,-0.072 -0.216,-0.144 -0.288,-0.216 z m -0.86401,1.08 c -0.288,-0.288 -0.936,-0.648 -1.44,-1.008 0.504,0.432 1.08,1.224 1.44,1.008 z m 2.952,1.152 -1.008,-1.224 c 0.072,-0.072 0.144,-0.072 0.216,-0.072 0.144,0 0.288,0.144 0.72,0.648 -0.072,-0.288 -0.792,-0.792 -1.152,-1.152 l 0.216,0.288 c -0.144,-0.144 -0.50399,-0.288 -0.79199,-0.504 1.00799,0.936 1.15199,2.16 1.79999,2.016 z m 0.36,0.36 c -0.072,0 -0.072,0.072 -0.072,0.144 l 1.08001,1.224 c -0.216,-0.504 -0.792,-1.368 -1.00801,-1.368 z m -39.384,0.144 v 0.072 z m 0.57601,0.072 c -0.144,0.216 -0.21601,0.288 -0.28801,0.288 0,0 0,-0.144 -0.144,-0.144 0,0 -0.072,0 -0.216,0.072 0,0.432 -0.072,0.792 -0.072,1.152 0,-0.936 0.93601,-0.792 0.72001,-1.368 z m -0.57601,0 c -0.072,0.072 -0.072,0.144 -0.072,0.216 z m -0.144,3.24 c 0.36,-0.36 0.432,-1.44 0.64801,-2.232 l -0.21601,0.504 c -0.288,-0.144 -0.504,0.288 -0.72,0.288 0.504,0.072 -0.072,0.72 -0.072,1.152 z m 40.39201,-1.152 c 0,-0.072 -0.072,-0.144 -0.144,-0.216 z m -2.01601,0.648 c 0,-0.072 -0.072,-0.144 -0.072,-0.216 l 0.288,0.144 c -0.072,0.072 -0.144,0.072 -0.216,0.072 z m -36.36,0.432 -0.072,-0.072 c 0,0 0,0.072 0.072,0.072 z m -1.944,1.44 0.144,-1.512 -0.288,0.576 z m -1.368,1.44 c 0.072,0.144 0.144,0.216 0.216,0.216 0.14401,0 0.21601,-0.144 0.36001,-0.144 0.072,0 0.072,0.072 0.144,0.36 0,-0.72 0.28799,-1.296 0.50399,-1.872 -0.144,0.144 -0.144,0.216 -0.288,0.432 0.072,-0.432 0,-1.08 0.072,-1.584 -0.35999,0.144 -0.28799,0.504 -0.43199,0.864 0.144,-0.144 0.21599,-0.216 0.28799,0 -0.43199,0.432 -0.072,0.864 -0.43199,1.296 v -0.504 c -0.36001,0 0.144,1.08 -0.43201,0.936 z m 42.04801,-1.152 c 0,0.72 0.072,1.656 0.072,2.088 -0.50399,-0.648 -0.43199,-1.296 -0.43199,-2.016 0,-0.36 -0.072,-0.72 -0.144,-1.008 0.072,-0.072 0.216,-0.072 0.288,-0.072 0,0.216 0.072,0.576 0.216,1.008 z m -0.648,0.504 c 0,0 -0.072,0 -0.144,-0.144 0,-0.36 -0.144,-0.792 -0.216,-1.152 0.072,0 0.072,-0.072 0.144,-0.072 0.072,0.072 0.072,0.216 0.144,0.288 0.216,0.576 0.216,1.08 0.072,1.08 z m -0.288,1.512 c -0.072,-0.288 -0.144,-0.936 -0.216,-1.44 0.072,-0.576 -0.14401,-1.008 -0.14401,-1.152 -0.144,-0.36 -0.072,0.432 -0.216,0.432 -0.072,0 -0.144,-0.072 -0.216,-0.216 -0.072,-0.072 -0.072,-0.144 -0.072,-0.216 l 0.64801,-0.216 c 0.072,0.504 0.288,0.936 0.288,1.368 0.144,0.648 0.216,1.224 -0.072,1.44 z m -40.536,-2.592 c 0,0.072 -0.072,0.144 -0.072,0.144 0.072,0 0.072,-0.072 0.072,-0.144 z m 42.11999,2.232 v 0.144 c 0,0.072 0,0.216 0.072,0.288 z m -42.552,1.656 c 0.36001,-0.432 0.072,-0.576 -0.072,-0.864 0.072,-0.144 0.144,-0.432 0.28801,-0.432 -0.072,-0.072 -0.21601,-0.288 -0.36001,-0.144 -0.144,0.504 -0.288,1.224 0.144,1.44 z m 33.04801,-1.08 c 0.14399,0.072 0.35999,0 0.93599,-0.288 -0.144,0 -0.504,0.072 -0.93599,0.288 z m 9.93599,2.52 c -0.072,0 -0.072,-0.288 0,-0.72 0.144,-0.72 0.144,-1.8 0,-2.088 0,1.08 -0.144,2.448 -0.288,3.456 -0.144,0.864 -0.36,1.512 -0.432,1.728 -0.288,1.224 -0.71999,2.304 -1.22399,3.384 1.15199,-2.304 2.23199,-4.752 2.23199,-6.408 -0.144,0.432 -0.216,0.648 -0.288,0.648 z m -0.36,-2.664 v 0.144 z m -41.328,2.16 c 0,-0.216 0,-0.432 -0.072,-0.576 l 0.072,0.072 c 0,0 -0.072,-0.504 -0.288,-0.936 0.144,0.576 -0.43199,1.44 0.288,1.44 z m -1.584,-0.288 0.288,0.072 c -0.072,-0.072 -0.576,-0.36 -0.432,-0.864 -0.216,0.216 0,0.36 -0.144,0.648 l 0.288,0.432 z m 29.73601,-0.144 c 0,-0.072 0.072,-0.072 0.144,-0.144 -0.072,0.072 -0.144,0.072 -0.144,0.144 z m -28.65601,0.216 c -0.144,0.144 0.072,0.576 -0.21599,0.576 -0.072,0.216 -0.072,0.288 0,0.288 0,0 0.14399,-0.144 0.21599,-0.144 v 0.072 c 0.072,-0.288 0.072,-0.72 0,-0.792 z m 24.84,0.144 v -0.072 c -0.072,0.072 -0.072,0.072 0,0.072 z m -24.336,0.144 c -0.216,0.288 -0.144,0.504 -0.144,0.864 0.072,-0.288 0.072,-0.576 0.144,-0.864 z m -2.088,1.008 0.288,-0.72 -0.144,0.144 z m 1.584,-0.504 c 0,0.072 0,0.072 0,0.144 z m 0,0.144 c 0,0 0,0 0,0 z m 22.46401,0.432 c -0.216,0 -0.79201,0.288 -1.22401,0.576 0.432,-0.288 0.79201,-0.432 0.93601,-0.432 0.144,0 0.144,0.072 0.144,0.144 0.216,-0.216 0.216,-0.288 0.144,-0.288 z m 3.096,0 c 0,0 -0.072,0 -0.144,0.072 z m -25.70401,0.648 -0.28799,-0.288 c 0,0.36 -0.072,0.576 -0.144,0.792 0.144,-0.144 0.36,0 0.43199,-0.504 z m 21.6,0.648 c 0.216,-0.216 0.216,-0.288 0.144,-0.288 -0.144,0 -1.224,0.792 -1.368,0.72 -0.072,-0.648 1.08,-0.432 1.296,-1.08 -0.072,-0.36 -2.30399,1.008 -3.312,1.44 -0.72,0.576 -0.576,0.72 -0.72,1.008 -0.288,0 -1.07999,0.504 -1.36799,0.432 -1.15201,1.152 -2.08801,1.44 -3.096,2.376 -0.14401,0.072 -0.86401,0.504 -0.79201,0.648 l 0.576,-0.432 c -0.144,0.144 -0.288,0.288 -0.432,0.432 h -0.144 l -0.072,0.072 h 0.072 c -0.288,0.36 -0.79199,0.792 -1.296,1.224 1.368,-0.864 2.592,-1.296 3.60001,-1.872 l 0.28799,-0.072 c -0.504,0.864 -2.52,1.296 -2.16,1.584 0.936,-0.36 2.52,-1.8 2.952,-1.8 0.216,-0.216 -0.576,0.144 0,-0.432 0.072,-0.072 0.144,-0.072 0.144,-0.072 1.584,-1.728 3.74401,-2.52 5.688,-3.888 z m 0.72001,0.072 c -0.64801,0.216 -1.44001,0.72 -2.08801,1.224 1.152,-0.576 2.23201,-1.152 3.312,-1.728 -0.35999,0 -0.71999,0.072 -1.29599,0.36 0,0.072 -0.072,0.144 0.072,0.144 z m -24.048,-0.36 c 0.144,0.288 -0.28801,0.576 -0.28801,0.936 l 0.21601,0.144 c -0.21601,-0.72 0.64799,-0.72 0.072,-1.08 z m 1.22399,0.504 c 0,-0.144 0.072,-0.288 0.072,-0.36 -0.072,0.072 -0.072,0.144 -0.072,0.36 z m 0.21601,0.864 c 0.144,0 0.28799,-0.288 0.35999,-0.36 -0.35999,-0.216 0,-0.504 -0.35999,-0.504 h -0.21601 c -0.072,0.144 -0.072,0.36 -0.072,0.576 l 0.14401,-0.504 c 0.288,0.216 -0.072,0.648 0.144,0.792 z m -1.368,0.72 c -0.216,-0.36 0.072,-0.936 -0.072,-1.296 0,0.36 -0.50401,1.944 -0.72001,2.088 0.144,-0.072 0.288,0.072 0.432,0.072 0.072,0 0.14401,-0.072 0.21601,-0.288 -0.144,-0.072 -0.072,-0.288 -0.21601,-0.288 0.072,-0.216 0.21601,-0.144 0.36001,-0.288 z m 1.72799,-1.08 0.072,0.072 c 0,-0.072 0,-0.072 -0.072,-0.072 z m 17.424,2.52 0.36,-0.576 c 0.288,0.216 1.29601,-0.576 2.376,-1.368 -1.368,0.72 -2.808,1.512 -4.17599,2.52 0.79199,-0.504 0.79199,-0.288 1.43999,-0.576 z m -18.072,-1.512 0.072,-0.36 c -0.072,0.216 -0.072,0.36 -0.072,0.36 z m -0.36,1.008 c -0.072,0 -0.144,-0.072 -0.144,-0.216 l 0.36,-0.144 -0.36,-0.792 c 0.216,0.576 -0.50399,1.08 0.072,1.224 l -0.288,0.216 0.36,-0.072 0.288,-0.504 c -0.072,0.144 -0.216,0.288 -0.288,0.288 z m 0.36,-1.008 -0.072,0.576 0.36001,-0.072 c 0.216,-0.576 -0.144,-0.288 -0.28801,-0.504 z m -0.576,1.8 c 0.144,-0.144 0.144,-0.36 0.216,-0.576 z m -1.728,4.464 c 0.072,0.072 0.072,0.144 0.144,0.144 0.072,0 0.144,-0.576 0.288,-0.576 0.432,0.216 -0.36,0.432 0,0.648 0.36,0.144 0.57601,-0.864 0.86401,-1.224 0,-0.36 -0.144,-0.36 -0.36,-0.504 0.216,0 0.36,-0.36 0.57599,-0.432 -0.21599,-0.72 0.432,-1.008 0.216,-1.8 0.072,0 0.072,0 0.072,0.072 v -0.072 c -0.144,-0.216 -0.072,-0.504 -0.072,-0.72 -0.216,0.576 -0.79199,0.936 -1.152,1.44 -0.288,-0.36 0.72001,-0.936 0.288,-0.936 -0.36,0.288 -0.432,1.08 -0.648,1.224 0.072,0.072 0.144,-0.072 0.144,-0.072 0.072,0 0.144,0.072 0.144,0.216 -0.144,0.432 -0.288,0.36 -0.504,0.576 l 0.216,0.288 c -0.36,0 -0.36,0.504 -0.43199,1.008 0.28799,-0.576 0.57599,-1.152 0.71999,-1.8 0.288,0.864 -0.432,1.656 -0.504,2.52 z m 18.792,-4.104 c 0.072,0 0.072,-0.072 0.14401,-0.072 -0.072,0 -0.072,0 -0.14401,0.072 z m -16.992,0.432 v 0.216 c 0,-0.144 0.072,-0.216 0,-0.216 z m 0,0.288 v -0.072 z m 12.168,1.944 c -0.432,0.288 -0.86399,0.648 -1.296,1.008 0.43201,-0.288 0.864,-0.648 1.296,-1.008 z m -14.25599,1.656 c -0.072,-0.072 -0.144,-0.072 -0.216,0 0.216,-0.216 0.288,-0.576 0.288,-0.936 -0.216,0.432 -0.43201,0.864 -0.57601,1.368 0.216,-0.144 0.43201,-0.216 0.50401,-0.432 z m 12.52799,-0.144 c 0.072,0 0.072,0.144 -0.144,0.432 l -0.72,0.216 -1.00799,1.584 c 0.79199,-1.224 2.37599,-1.8 2.15999,-2.448 l 0.64801,-0.288 h -0.50401 c -0.432,0.36 -0.864,0.648 -1.15199,0.864 0.28799,-0.216 0.57599,-0.36 0.71999,-0.36 z m -11.952,0.432 c 0.072,0.072 0.144,0.144 0.216,0.144 0.144,0 0.216,-0.216 0.216,-0.504 -0.072,0.36 -0.288,0.504 -0.432,0.36 z m -0.936,12.24 -0.072,-0.288 c 0.072,0.072 0.28801,0 0.21601,-0.216 -0.072,-0.144 -0.072,-0.216 -0.072,-0.216 -0.144,0 -0.288,0.288 -0.36,0.072 0.792,-0.576 -0.504,-1.728 0.50401,-2.304 -0.072,-2.376 0,-5.328 0.43199,-7.416 l -0.072,0.072 c -0.14399,-0.288 0.072,-0.792 0.288,-0.792 l -0.36,-0.144 c 0,-0.216 0.072,-0.288 0.216,-0.288 0.144,0 0.432,0.216 0.648,0.216 0.144,0 0.21601,-0.072 0.21601,-0.36 -0.072,0.144 -0.14401,0.216 -0.28801,0.216 -0.216,0 -0.432,-0.288 -0.36,-0.504 h -0.36 c -0.14399,0 -0.28799,0 -0.28799,0.144 l -0.36001,0.432 c 0.50401,0.144 0.144,0.864 0,1.152 0,-0.072 -0.072,-0.072 -0.072,-0.072 -0.216,-0.144 -0.36,-0.432 -0.072,-0.72 -0.072,-0.36 0,-0.72 0.072,-1.08 -0.288,0.144 -0.576,0.216 -0.648,0.72 0.072,-0.072 0.072,-0.144 0.144,-0.144 0.072,0 0.072,0.144 0.144,0.144 0.072,0 0.072,0 0.144,-0.072 0.144,0.432 -0.64799,0.864 -0.504,1.584 0,-0.216 0.216,-0.144 0.288,0 -0.216,0.504 -0.216,1.224 -0.288,1.728 0.072,-0.072 0.144,-0.072 0.216,0 -0.144,0.36 -0.216,0.504 -0.50399,0.936 -0.64801,1.656 -0.216,4.104 -0.86401,5.544 l -0.144,0.144 c -0.216,0 -0.144,-0.576 -0.288,-0.432 0.576,1.656 0.936,1.944 2.448,1.944 z m 14.112,-11.736 c -0.21599,0 -0.072,-0.36 -0.28799,-0.36 -0.144,0 -0.28801,0.072 -0.72001,0.432 0,0.216 -0.432,0.576 -0.216,0.648 -0.50399,0.36 -0.50399,0.144 -0.864,0.36 -0.576,0.864 -1.872,1.872 -2.232,2.664 0.36,-0.576 3.88801,-3.6 4.32,-3.744 z m -2.304,-0.288 -0.504,0.072 c -1.296,1.08 -0.28799,0.576 -0.57599,1.08 z m -10.944,0.936 h 0.072 z m 9.86401,0.216 c -0.072,0.072 -0.21601,0.144 -0.36001,0.36 z m -0.36001,0.36 -0.36,0.288 c 0.144,-0.144 0.288,-0.216 0.36,-0.288 z M 499.93212,0 c 0.144,0.576 -1.296,1.296 -0.288,1.296 0.288,-0.36 0.648,-0.72 1.08001,-1.224 l -1.08001,0.936 c 0.144,-0.504 1.22401,-1.224 1.22401,-1.584 -0.144,-0.072 -0.72001,0.432 -0.93601,0.576 z m 0,0 c 0,-0.072 0,-0.072 -0.072,-0.144 -0.072,0.144 0,0.144 0.072,0.144 z m 0.072,2.664 c 0.288,-0.576 1.368,-1.08 1.872,-1.728 l 0.072,-0.36 c -1.00799,1.512 -1.872,1.152 -1.944,2.088 z M 490.21213,1.08 c 0.072,0 0.144,-0.144 0.144,-0.36 -0.144,0.072 -0.21601,0.144 -0.144,0.36 z m 9.43199,0.216 c -0.28799,0.216 -0.504,0.432 -0.72,0.648 0.144,-0.072 0.36001,-0.216 0.72,-0.648 z m -2.016,1.656 -0.072,0.648 c 0.576,-0.792 1.008,-1.224 1.368,-1.656 -0.36,0.216 -0.36,-0.072 -1.296,1.008 z m -1.872,1.728 c -0.432,0.576 -0.93599,1.296 -1.368,1.944 0.57601,-0.576 0.864,-1.08 1.368,-1.944 z m 0.936,1.656 0.432,-0.36 0.93601,-1.152 z m -0.936,-1.08 c -0.144,0.216 -0.216,0.288 -0.288,0.36 0.216,-0.288 0.36,-0.504 0.288,-0.36 z m -1.224,2.088 c 0.28801,-0.288 0.72,-1.44 1.08,-1.368 0.288,-0.36 0.36,-0.504 0.36,-0.504 -0.072,0 -0.36,0.216 -0.432,0.216 0,0 -0.072,0 -0.072,-0.072 -0.36,0.576 -1.008,1.584 -0.936,1.728 z m -1.8,2.808 c 0.50401,-1.44 2.30401,-3.384 1.584,-3.456 -0.432,0.576 -0.71999,1.08 -0.71999,1.296 V 7.848 c 0,0 -0.64801,1.296 -0.86401,2.304 z m 2.952,-2.088 0.216,-1.008 -0.288,0.576 -0.288,-0.144 c 0,0.144 0.144,0.792 -0.57599,1.872 0.57599,-0.432 0.43199,-0.792 0.93599,-1.296 z m -2.808,4.464 0.144,-0.144 c 0.57601,-1.152 1.65601,-2.808 1.44,-3.384 -1.00799,1.008 -0.792,1.44 -0.93599,2.088 -0.216,0.216 -0.64801,1.008 -0.79201,1.008 0,0.144 0,0.432 0.144,0.432 z m -0.432,-1.656 h 0.072 c 0,-0.144 0,-0.072 -0.072,0 z m 0,0.072 c 0,0 0,-0.072 0,-0.072 z m 0,0.072 c 0,0 0,-0.072 0,-0.072 z m 0.216,0.936 c 0,0.144 0.072,0.144 0.072,0.144 0,-0.072 0,-0.144 -0.072,-0.144 z m 22.24801,1.296 0.71999,-0.432 z m -23.61601,2.592 c -0.144,0.792 -0.072,1.872 0.50401,2.592 -0.21601,-0.504 -0.36001,-0.72 -0.43201,-1.44 0.216,1.728 1.94401,2.016 3.38401,2.016 -0.36001,-0.216 -0.79201,-0.216 -1.224,-0.288 -0.36,-0.072 -0.64801,-0.216 -0.93601,-0.432 0.144,0.144 0.216,0.288 0.072,0.288 0,0 -0.072,0 -0.216,-0.072 -0.43199,-0.576 -0.64799,-1.008 -0.792,-1.512 -0.144,-0.504 -0.144,-1.08 0.14401,-1.656 -0.072,0.36 -0.072,0.792 0,1.152 0.144,-0.072 0.072,-0.648 0.144,-1.224 0.072,-0.648 0.21599,-1.152 0.50399,-1.08 0.072,-0.432 0,-0.576 -0.072,-0.576 -0.144,0 -0.35999,0.36 -0.43199,0.36 -0.072,0 -0.072,-0.216 0.072,-0.864 -0.36001,1.008 -0.57601,1.872 -0.72001,2.736 z m 12.24,0.576 c -0.216,0.072 -0.432,0.144 -0.72,0.288 z m 0.36001,0.504 c -0.43201,0.072 -0.64801,0.144 -0.79201,0.144 -0.288,0 0.64801,-0.36 -0.144,-0.36 h -0.144 c -0.864,0.36 -1.656,0.72 -2.448,1.008 1.94401,-0.72 2.376,0 3.52801,-0.792 z m -3.52801,0.792 c -0.072,0.072 -0.216,0.072 -0.288,0.144 0.072,-0.072 0.216,-0.072 0.288,-0.144 z m -7.776,0.576 -0.288,-0.36 c 0.072,0.144 0.144,0.288 0.288,0.36 z m 6.336,-0.288 c 0.072,0.504 -1.944,0.576 -3.024,0.72 l -0.432,0.432 c 0.216,0.072 0.432,0.072 0.72001,0.072 1.29599,0 3.52799,-0.576 5.32799,-1.296 l -1.44,0.36 c 0.144,-0.288 -1.08,-0.072 -1.152,-0.288 z m 0,0 c 0,0 0,0 0,0 z m -3.096,1.296 c -0.504,0 -1.07999,0 -1.584,-0.072 -0.86399,0 -1.728,0 -2.44799,-0.576 0.71999,0.72 1.512,0.792 2.44799,0.792 0.50401,0 1.08,-0.072 1.584,-0.144 z m 1.368,1.512 c -0.072,0.072 -0.216,0.072 -0.288,0.144 0.072,-0.072 0.216,-0.072 0.288,-0.144 z" stroke-width="0" stroke-linejoin="miter" stroke-miterlimit="2" fill="#d16320" stroke="#d16320" transform="translate(0 338.96799999999996) translate(405.0161375 -97.74399999999999) scale(3) translate(-476.46106 73.872)"></path>
      </g>
      <image xlink:href="" id="icon" x="0" y="0" style="display: none;"></image>
    </g>
  </g>
</svg>