<svg xmlns:dc="http://purl.org/dc/elements/1.1/" xmlns:cc="http://creativecommons.org/ns#" xmlns:rdf="http://www.w3.org/1999/02/22-rdf-syntax-ns#" xmlns:svg="http://www.w3.org/2000/svg" xmlns="http://www.w3.org/2000/svg" xmlns:xlink="http://www.w3.org/1999/xlink" id="svg535238" viewBox="0 0 1024 768" height="768px" width="1024px" version="1.1">
  <metadata id="metadata535244">
    <rdf:rdf>
      <cc:work rdf:about="">
        <dc:format>image/svg+xml</dc:format>
        <dc:type rdf:resource="http://purl.org/dc/dcmitype/StillImage"></dc:type>
      </cc:work>
    </rdf:rdf>
  </metadata>
  <defs id="defs535242"></defs>
  <linearGradient spreadMethod="pad" y2="30%" x2="-10%" y1="120%" x1="30%" id="3d_gradient2-logo-df119770-088a-4ff3-b9ba-c51aa100daf2">
    <stop id="stop535219" stop-opacity="1" stop-color="#ffffff" offset="0%"></stop>
    <stop id="stop535221" stop-opacity="1" stop-color="#000000" offset="100%"></stop>
  </linearGradient>
  <linearGradient gradientTransform="rotate(-30)" spreadMethod="pad" y2="30%" x2="-10%" y1="120%" x1="30%" id="3d_gradient3-logo-df119770-088a-4ff3-b9ba-c51aa100daf2">
    <stop id="stop535224" stop-opacity="1" stop-color="#ffffff" offset="0%"></stop>
    <stop id="stop535226" stop-opacity="1" stop-color="#cccccc" offset="50%"></stop>
    <stop id="stop535228" stop-opacity="1" stop-color="#000000" offset="100%"></stop>
  </linearGradient>
  <g id="logo-group">
    <image xlink:href="" id="container" x="272" y="144" width="480" height="480" style="display: none;" transform="translate(0 0)"></image>
    <g id="logo-center" transform="translate(0 0)">
      <image xlink:href="" id="icon_container" x="0" y="0" style="display: none;"></image>
      <g id="slogan" style="font-style:normal;font-weight:600;font-size:32px;line-height:1;font-family:Quicksand;font-variant-ligatures:none;text-align:center;text-anchor:middle" transform="translate(0 0)"></g>
      <g id="title" style="font-style:normal;font-weight:normal;font-size:72px;line-height:1;font-family:'Brandmark Sans 1 Color';font-variant-ligatures:normal;text-align:center;text-anchor:middle" transform="translate(0 0)">
        <g id="path535247" aria-label="^B" transform="translate(0 358.012) translate(451.952 -46.048) scale(3) translate(-493.055 48.024)"> <rect x="79.98242" y="85.95874" class="c3" width="11.37695" height="8.06494" transform="translate(413.072578 -123.99787)" stroke-width="0" stroke-linejoin="miter" stroke-miterlimit="2" fill="#c79c0f" stroke="#c79c0f"></rect> <rect x="79.98242" y="105.1604" class="c3" width="11.37695" height="8.78467" transform="translate(413.072578 -123.99787)" stroke-width="0" stroke-linejoin="miter" stroke-miterlimit="2" fill="#c79c0f" stroke="#c79c0f"></rect> <path class="c1" d="M110.80078,99.2561c4.5127-0.95996,8.30469-4.99268,8.30469-11.04102 c0-6.38477-4.7041-12.24121-13.8252-12.24121h-13.9209v9.93701h11.66504c2.6875,0,4.46387,1.63232,4.46387,4.08057 s-1.77637,4.03223-4.46387,4.03223H91.35938v11.08887h12.00098c3.07227,0,5.04004,1.77637,5.04004,4.46436 c0,3.84033-3.16797,4.36816-5.04004,4.36816H91.35938v10.08105h14.68945c9.12012,0,13.96875-5.75977,13.96875-12.96094 C120.01758,105.01636,115.88965,100.07202,110.80078,99.2561z" transform="translate(413.072578 -123.99787)" stroke-width="0" stroke-linejoin="miter" stroke-miterlimit="2" fill="#fcfcfc" stroke="#fcfcfc"></path> </g>
       </g>
      <image xlink:href="" id="icon" x="0" y="0" style="display: none;"></image>
    </g>
  </g>
</svg>